<svg id="Capa_1" data-name="Capa 1" xmlns="http://www.w3.org/2000/svg" viewBox="0 0 872.32 467.1"><defs><style>.cls-1{fill:#010101;}.cls-2{fill:#809a29;}.cls-2,.cls-3,.cls-4{fill-rule:evenodd;}.cls-3{fill:#ea5620;}.cls-4{fill:#e7286c;}.cls-5{fill:#a9c824;}.cls-6{fill:#f3941d;}.cls-7{fill:#ee7489;}.cls-8{fill:#376ab2;}</style></defs><title>Sin título-5</title><path class="cls-1" d="M357,99.21v7.47H298v55.23h59v7.47H298v55.23h59v7.47H290.51V99.21Z" transform="translate(-51.63 -33.95)"/><path class="cls-1" d="M387.26,168.72v63.36h-7.48V150.53h7.48v5.23q10.22-10.12,23.75-10.13,14.44,0,23.5,9.05t9.3,22.84v54.56h-7.47v-53.9a23.9,23.9,0,0,0-7.52-17.73,25.35,25.35,0,0,0-35.58-.12A27.82,27.82,0,0,0,387.26,168.72Z" transform="translate(-51.63 -33.95)"/><path class="cls-1" d="M480.35,150.53V115.82h7.47v34.71h16.61V158H487.82v74.08h-7.47V158H463.74v-7.47Z" transform="translate(-51.63 -33.95)"/><path class="cls-1" d="M524.36,150.53h7.48V165.4a47.61,47.61,0,0,1,5.4-6.4q9.87-9.88,20.26-10.38v8.14q-7.07.33-14.62,7.89a35.9,35.9,0,0,0-11,25.33v42.1h-7.48Z" transform="translate(-51.63 -33.95)"/><path class="cls-1" d="M589.31,216.8a35.93,35.93,0,0,0,25.07,9.63,36.33,36.33,0,0,0,26.66-11c.94-.94,1.83-1.91,2.66-2.91l7.89,2.83a47.39,47.39,0,0,1-4.9,5.73,45.64,45.64,0,0,1-77.9-32.31,45.72,45.72,0,0,1,73.91-35.87q2,1.65,4,3.65c.5.5,1,1,1.41,1.49l-5.65,5.65ZM637,158.59a35.94,35.94,0,0,0-22.59-7.48,37.62,37.62,0,0,0-37.61,37.62,36,36,0,0,0,7.47,22.59Z" transform="translate(-51.63 -33.95)"/><path class="cls-1" d="M97.83,479.15c0-25.2,30-57.6,60.9-79.8-2.71-24-23.1-37.2-45.6-37.2l-4.8.3c-2.4,0-3.6-.3-3.9-1.8,0-1.8,1.8-3,3-3.6,15.6-10.2,42.59-46.5,43.8-83.4,0-11.7-2.7-29.7-14.7-29.7l-1.2.3c-51.6,12-57.3,151.5-59.4,206.4-.3,5.1-.6,9.3-.6,12.6,0,3.6-5.1,6-10.2,6.3-3.6,0-6.9-1.5-7.2-5.7-4.2-23.7-6.3-57.9-6.3-91.8,0-31.2,1.8-62.4,5.7-84.3.6-5.1,5.4-7.5,9.9-7.5,5.7.3,10.5,2.1,10.5,8.4v1.2c-5.1,42.6-6.9,73.5-6.9,96.9,0,15.9.9,28.2,1.8,39.3,3.3-64.2,13.5-173.4,60.9-186,1.8-.9,4.8-1.2,8.1-1.2l5.4.6c15.89,3,23.7,18.9,23.7,35.1,0,3-.3,6-.6,9-6.61,35.1-27.6,56.1-54.6,73.8l7.2-.3c25.8,0,46.79,7.8,53.39,30.6l35.4-22.2a2.32,2.32,0,0,1,2.1,2.4,2.59,2.59,0,0,1-.9,1.8L177,392.15a75.08,75.08,0,0,1,.9,12c0,17.1-5.11,36.6-11.11,50.4C154.23,484.25,133.23,501,117.63,501,105.93,501,97.83,492,97.83,479.15ZM159,406v-1.2c-20.1,14.7-37.8,31.5-50.1,53.1-3.9,6.89-6.6,14.7-6.6,21.6,0,8.7,4.2,15,12.6,17.09C132,495.34,159,447.05,159,406Z" transform="translate(-51.63 -33.95)"/><path class="cls-1" d="M255.32,440.75c-7.2-4.5-9-23.4-9-40.5,0-9,.6-17.4.9-22.8-5.7,18.3-13.2,40.5-21.6,41.7l-2.4.3c-13.8,0-17.4-16.2-17.4-29.7l.3-7.5c1.5-15.9,9.9-42.9,27.9-42.9l3.9.3c4.8.9,9.6,4.8,12.3,9l1.2-5.7c.9-3.3,5.1-5.4,9.3-5.4,4.5,0,9,2.4,9,7.5l-.3,1.2c-.6,5.7-5.7,45.3-5.7,71.1a101.31,101.31,0,0,0,.9,14.7c.3,3.3,1.2,5.7,1.8,5.7,11.1-3.6,29.7-56.7,36.9-71.1a2.26,2.26,0,0,1,2.1-1.2,2.22,2.22,0,0,1,2.1,2.1,3,3,0,0,1-.3,1.2c-7.8,15.9-25.8,69-39.6,73.2a17,17,0,0,1-5.4.9A11.67,11.67,0,0,1,255.32,440.75Zm-6.3-84.6a18.43,18.43,0,0,0-4.5-7.8,20.33,20.33,0,0,0-6.9-4.2c-6.3,3.6-14.4,45.3-14.4,63.3,0,3.3.3,6,.9,7.2l.9.3C233.12,415,245.72,366.05,249,356.15Z" transform="translate(-51.63 -33.95)"/><path class="cls-1" d="M323.42,470.45c-10.2,0-18.3-7.5-18.3-18.9a24.72,24.72,0,0,1,1.2-7.8c4.8-15.3,16.8-30,28.8-42-10.2-12.6-27.3-19.2-31.8-33.3a25,25,0,0,1-.9-6.6c0-14.4,14.1-26.4,28.2-26.4l3.6.3c8.1,1.2,13.8,6.3,13.8,13.2a18,18,0,0,1-2.1,8.1,5.26,5.26,0,0,1-4.8,3.3l-1.5-.3a4.05,4.05,0,0,1-2.4-3.6l.3-1.5c1.5-4.2,6-1.2,6-5.7,0-5.1-4.2-8.1-9.6-9l-3.6-.3c-7.5,0-15.9,4.2-15.9,13.2v.9c.6,14.1,21,22.2,33.3,36,12-10.2,24.6-18.9,36-24.3l.9-.3a2,2,0,0,1,1.8,1.2l.3,1.2a1.87,1.87,0,0,1-1.2,1.8c-11.1,5.4-23.4,13.8-34.8,23.7,6,8.1,8.4,18,8.4,27.6,0,3-.3,6-.6,9-3.3,20.1-16.8,38.4-32.7,40.5Zm3.6-4.8c11.1-4.2,15.6-21.9,15.9-36l.3-4.5a36.54,36.54,0,0,0-5.4-19.8c-6.6,6.9-23.4,25.5-27.6,40.8a16.61,16.61,0,0,0-.6,5.4c0,8.1,5.1,14.4,13.5,14.4A18.45,18.45,0,0,0,327,465.65Z" transform="translate(-51.63 -33.95)"/><path class="cls-1" d="M399.32,450.05c-10.2-6.6-15.6-33.3-16.8-66.9l-.3-18.9a599.62,599.62,0,0,1,3-60.9c-12.9-1.2-25.2-2.4-36.9-2.4-14.7,0-28.2,1.8-38.4,6.3-1.2.6-1.2,1.5-1.2,3v1.2c0,1.8,0,3.9-2.1,6a10,10,0,0,1-4.8,1.5,5.54,5.54,0,0,1-5.1-3.3,4.45,4.45,0,0,1-.3-2.1c0-5.1,7.8-8.7,11.4-10.2,11.1-5.1,25.2-6.6,40.8-6.6,11.7,0,24,.9,36.9,2.1q2.25-19.8,5.4-37.8c.6-3.9,5.4-5.7,10.5-5.7h1.2c4.8.3,9,2.7,9,6.6v1.2c-2.1,12.6-3.9,24.9-5.4,37.8,18.9,2.1,37.8,4.2,55.2,4.2,22.2,0,42-3.3,55.8-13.5,1.79-1.2,2.4-2.4,2.4-3.6s-.91-2.7-.91-4.2c0-.9.6-2.1,1.81-3.6a5,5,0,0,1,3.89-1.5c2.71,0,5.4,1.8,5.4,4.5a8,8,0,0,1-1.49,3.9,50.54,50.54,0,0,1-6.9,6.9c-14.71,12-36,15.3-59.7,15.3-17.7,0-36.9-1.8-55.8-3.9-2.4,24.9-3.6,50.7-3.6,73.5v13.2c1.2,30.9,4.8,53.1,11.4,54.9,15-4.2,29.7-62.4,37.2-80.1a3.1,3.1,0,0,1,2.1-1.5l1.2.3a2.53,2.53,0,0,1,1.2,2.1l-.3.9c-9.6,22.2-22.5,78.6-40.8,82.8a23.4,23.4,0,0,1-6.6.9A15,15,0,0,1,399.32,450.05Z" transform="translate(-51.63 -33.95)"/><path class="cls-1" d="M462,422.75c-10.2-3.6-12.6-23.7-12.6-40.5,0-11.1.9-20.7,1.5-23.4.3-4.8,5.1-6.9,9.9-6.9h.9c4.5,0,9,2.4,9,6v.3c0,5.7-2.4,24.9-2.4,40.2,0,11.4,1.2,20.7,6,20.7,11.1-.3,20.4-35.4,26.1-52.2a2.6,2.6,0,0,1,2.1-1.5l1.2.3a2.14,2.14,0,0,1,.9,1.8v.9c-6.6,18.9-15.6,54.3-30.3,54.9l-4.5.3A31,31,0,0,1,462,422.75Zm-7.5-90.3a8.2,8.2,0,0,1,2.4-5.7,8.62,8.62,0,0,1,5.4-2.1,9.47,9.47,0,0,1,5.7,2.1,8.81,8.81,0,0,1,2.1,5.7,7.8,7.8,0,0,1-15.6,0Z" transform="translate(-51.63 -33.95)"/><path class="cls-1" d="M552.61,440.15c-8.1-9.6-11.4-32.7-11.4-59.4v-9.6c-6.3,19.5-15.9,46.2-28.2,46.2-12.9,0-16.19-18.6-16.19-31.8a72.16,72.16,0,0,1,.6-9.3c3-18.9,12.6-36.6,26.39-36.6h1.5a27.61,27.61,0,0,1,17.4,8.1c3-36.9,11.4-73.2,22.2-84.9,3.6-3.9,12.3-7.5,21-7.5,10.8.3,21.3,6.3,21.3,24.9v.9c-.9,26.7-22.8,63.9-46.2,75-.3,3.6-1.2,19.2-1.2,36,0,22.5,1.5,46.8,8.1,46.8h.3c8.1-.9,24.9-36.9,41.4-72,.6-1.2.9-1.5,2.1-1.5a2.27,2.27,0,0,1,1.2.3,2,2,0,0,1,1.2,1.8,2.32,2.32,0,0,1-.3.9c-17.4,36.6-34.5,74.1-45.6,75l-6.6.3C558.31,443.75,555,443.15,552.61,440.15Zm-10.8-86.1c-3.9-6-9.3-8.7-15.6-9.9-6.3,2.7-13.5,45-13.5,62.4a29.46,29.46,0,0,0,.6,6.3C525,412.85,536.71,370.55,541.81,354.05Zm60.9-73.5v-.9c0-11.1-4.8-19.5-16.5-19.5h-.6c-12.6.3-21.3,59.4-24,90.9C583.21,339.05,602.41,303.65,602.71,280.55Z" transform="translate(-51.63 -33.95)"/><path class="cls-1" d="M623.71,428.15c-3.6,0-7.8-.6-10.2-3-6.6-6.6-8.1-18.6-8.1-29.4a138.65,138.65,0,0,1,1.8-21.3c-.3-.6-3.9-5.7-3.9-12.3a15.67,15.67,0,0,1,1.2-6.3c3.6-9,11.7-14.1,19.8-14.1,11.7,0,23.7,10.5,23.7,33.9v2.4c9-2.7,17.4-6.6,23.7-12a2.29,2.29,0,0,1,1.5-.6,1.65,1.65,0,0,1,1.5.9,2.29,2.29,0,0,1,.6,1.5,2.74,2.74,0,0,1-.9,1.5c-6.9,6-16.8,10.8-26.4,13.5-.9,8.4-3.9,24-9.6,34.5-3.3,6.3-7.8,10.8-13.2,10.8Zm20.1-48.9v-3.6c0-19.5-8.7-27-17.1-27s-16.8,6.9-17.4,15.6a4.26,4.26,0,0,0,.6-1.8c.6-2.4,3.6-3.6,6.6-3.6l3.6.6c3.3.9,6.3,3,6.3,6.3l-.3,1.8a77,77,0,0,0-2.4,12.9,38.25,38.25,0,0,0,6,.3A77.77,77.77,0,0,0,643.81,379.25Zm-9.6,36.6c4.5-8.1,7.8-21,9-32.1a68.5,68.5,0,0,1-13.2,1.5,49.24,49.24,0,0,1-6.9-.6c-.6,6.9-.9,14.4-.9,21.3.3,8.7,1.2,15.9,3.6,17.7C628.81,423.35,631.51,420.35,634.21,415.85Z" transform="translate(-51.63 -33.95)"/><path class="cls-1" d="M695.41,447.35c-3.6-4.5-4.8-12-4.8-20.4,0-17.7,5.7-39.9,5.7-45.6l-.3-1.2c-3-6.3-32.7-.9-32.7-30.6a50.7,50.7,0,0,1,.9-9c2.4-14.7,10.8-20.7,17.4-20.7a15.06,15.06,0,0,1,3.6.6c3.9,1.8,6,5.7,6,11.4l-.3,4.5c-1.5,9-6,19.5-10.2,24.3,10.5,3.9,26.7.3,32.1,10.5a12.85,12.85,0,0,1,1.8,6.6c0,3.6-1.5,7.8-2.4,12.6-3.3,14.7-7.8,35.4-7.8,47.1,0,5.4.9,9,3.6,9,12.3-.3,33.89-63.9,40.79-79.8a2,2,0,0,1,2.11-1.2l.9.3a2.53,2.53,0,0,1,1.2,2.1v.6c-7.8,18-28.81,81.6-44.7,82.5l-3.6.3C701.41,451.25,697.81,450.35,695.41,447.35ZM687,334.85v-2.7c0-4.5-1.2-6.9-3.3-7.5h-.9c-4.2,0-9.6,6.3-10.5,17.4l-.3,4.8c0,4.5.9,8.4,4.5,11.4C681.91,353.75,686.11,343,687,334.85Z" transform="translate(-51.63 -33.95)"/><path class="cls-1" d="M767.7,425.45c-15.6-3.6-22.5-21.3-22.5-39.6,0-20.1,8.1-41.1,21-46.2a27.87,27.87,0,0,1,8.7-1.5l4.5.3c8.1.9,11.7,6.6,11.7,13.2a17.47,17.47,0,0,1-.9,5.7c-2.1,7.8-9,15.3-17.1,15.3a16,16,0,0,1-6-1.5,163.46,163.46,0,0,0-2.7,28.2c0,11.4,1.8,21.9,8.4,22.5h1.5c9,0,15.9-7.8,22.8-18.9,6.6-11.1,12.3-24.6,16.5-36a2.26,2.26,0,0,1,2.1-1.5l1.2.3c.9.3.9,1.2.9,1.8v.9c-3.3,9-9,24-16.8,36.6-6.9,11.4-15.3,20.7-25.2,21.3A37.24,37.24,0,0,1,767.7,425.45Zm18.3-68.7a14,14,0,0,0,.6-4.8c0-4.5-2.1-8.1-7.5-9-3.9.3-8.1,10.5-11.1,23.7a9,9,0,0,0,5.1,1.5C778.8,368.15,783.9,362.45,786,356.75Z" transform="translate(-51.63 -33.95)"/><path class="cls-1" d="M834.3,470.45c-10.2,0-18.3-7.5-18.3-18.9a24.72,24.72,0,0,1,1.2-7.8c4.8-15.3,16.8-30,28.8-42-10.2-12.6-27.3-19.2-31.8-33.3a25,25,0,0,1-.9-6.6c0-14.4,14.1-26.4,28.2-26.4l3.6.3c8.1,1.2,13.8,6.3,13.8,13.2a18,18,0,0,1-2.1,8.1,5.26,5.26,0,0,1-4.8,3.3l-1.5-.3a4.05,4.05,0,0,1-2.4-3.6l.3-1.5c1.5-4.2,6-1.2,6-5.7,0-5.1-4.2-8.1-9.6-9l-3.6-.3c-7.5,0-15.9,4.2-15.9,13.2v.9c.6,14.1,21,22.2,33.3,36,12-10.2,24.6-18.9,36-24.3l.9-.3a2,2,0,0,1,1.8,1.2l.3,1.2a1.87,1.87,0,0,1-1.2,1.8c-11.1,5.4-23.4,13.8-34.8,23.7,6,8.1,8.4,18,8.4,27.6,0,3-.3,6-.6,9-3.3,20.1-16.8,38.4-32.7,40.5Zm3.6-4.8c11.1-4.2,15.6-21.9,15.9-36l.3-4.5a36.54,36.54,0,0,0-5.4-19.8c-6.6,6.9-23.4,25.5-27.6,40.8a16.61,16.61,0,0,0-.6,5.4c0,8.1,5.1,14.4,13.5,14.4A18.45,18.45,0,0,0,837.9,465.65Z" transform="translate(-51.63 -33.95)"/><path class="cls-2" d="M637.48,300.35c136.88-5.75,205.22-112.18,213.6-188.13S755,25.7,766.78,122.7s-41,157.52-129.3,177.65" transform="translate(-51.63 -33.95)"/><path class="cls-3" d="M662.49,280.11c87.26-54.19,92.66-148.89,70.11-201.55S638,57.49,681.42,116.47s31.32,118-18.93,163.64" transform="translate(-51.63 -33.95)"/><path class="cls-4" d="M787.9,261.75c27.79-22.7,52.32-48.38,68-75.95,30.59-53.73,54.67-48.05,63.94-34.05,21.8,32.87-47,77.23-132,110" transform="translate(-51.63 -33.95)"/><path class="cls-5" d="M784.71,167.34c-2.37,25.93-9.73,49.17-22,69.51a202.22,202.22,0,0,0,17.35-16.07c29.57-30.91,49.73-72.18,53.94-110.42,2.7-24.83-10.33-39.24-24.44-40.52-14.36-1.32-24.44,10.56-26.31,31a94.82,94.82,0,0,0,.47,19.81,220.9,220.9,0,0,1,.94,46.7" transform="translate(-51.63 -33.95)"/><path class="cls-6" d="M726.14,151.13c2.13-23.44-1.16-46.84-9.29-65.83C711.05,71.72,701.76,68,695,69.08A11.62,11.62,0,0,0,685,80c-.64,7.13,3,16.48,10.25,26.34,15.08,20.46,24.5,41.41,28.2,62.56a150.41,150.41,0,0,0,2.73-17.74" transform="translate(-51.63 -33.95)"/><path class="cls-7" d="M906.8,165.39a6.08,6.08,0,0,0-1.2-4.17c-1.29-1.94-2.3-1.9-2.69-1.9-4.62.18-16.58,7.69-32.08,34.93-2.49,4.34-5.15,8.65-8.06,12.95,30.27-18.43,43.28-33.65,44-41.81" transform="translate(-51.63 -33.95)"/><path class="cls-8" d="M781.79,278.92c15.31,4.82,31.36,6,45.19,3.33,9.9-1.91,13.7-7.57,14-12.22a7.88,7.88,0,0,0-5.78-8.27h0c-4.65-1.45-11.41-.39-19,3-15.8,7.09-31.12,10.35-45.75,9.75a95.15,95.15,0,0,0,11.44,4.37" transform="translate(-51.63 -33.95)"/><path class="cls-2" d="M262.42,309C224.31,270.05,101.07,164.7,78.85,93.75s82.33-89,81.52,2.72S198,227.9,262.42,309" transform="translate(-51.63 -33.95)"/><path class="cls-4" d="M252.9,270.89c-35.78-38.84-73.72-88.31-68.87-143.18,4.47-50.36,77.24-28.78,48.63,26.62-15.59,47.28-2.39,65.51,20.24,116.56" transform="translate(-51.63 -33.95)"/><path class="cls-5" d="M141.19,96.27c-.26,28.09,3.05,51.84,9.34,73.28C125.38,140.62,104.58,111.69,97.17,88c-4.09-13-2.54-23.62,4.35-29.86A20.25,20.25,0,0,1,123,54.83c11.71,5.06,18.31,20.17,18.15,41.44" transform="translate(-51.63 -33.95)"/><path class="cls-7" d="M219.32,125.14c1.81,5,.48,12.25-3.71,20.39l-.7,1.34-.48,1.45a170.89,170.89,0,0,0-5.8,22.16c-4.52-13.38-6.71-27.16-5.48-41.09.44-5.07,2-8.75,4.24-10.1a7.41,7.41,0,0,1,6.54,0,9.82,9.82,0,0,1,5.39,5.82" transform="translate(-51.63 -33.95)"/><path class="cls-8" d="M130,217.34c-15.31-4.81-29.15-13-39-23.12-7-7.23-6.9-14-4.46-18A7.89,7.89,0,0,1,96,172.74h0c4.65,1.47,9.58,6.21,13.89,13.39,8.9,14.86,19.61,26.29,31.94,34.17a95.67,95.67,0,0,1-11.88-3" transform="translate(-51.63 -33.95)"/></svg>